<svg width="106" height="106" viewBox="0 0 106 106" fill="none" xmlns="http://www.w3.org/2000/svg">
<path fill-rule="evenodd" clip-rule="evenodd" d="M26.5008 44.1667H35.3337H39.7503V48.5833H35.3337H26.5008V44.1667ZM70.667 17.6667V39.75H75.0837V13.25H36.6277L17.667 32.2108V88.3333H35.3337H39.7503V83.9167H35.3337H22.0837V35.3333H39.7503V17.6667H70.667ZM26.5008 57.4167H35.3337V61.8333H26.5008V57.4167ZM35.3337 75.0833V70.6667H26.5008V75.0833H35.3337ZM35.3337 20.7892L25.2062 30.9167H35.3337V20.7892ZM66.2508 35.3333H44.1674V30.9167H66.2508V35.3333ZM83.917 66.25C83.917 71.5528 82.0479 76.4191 78.9327 80.226L89.904 91.1973L86.7809 94.3203L75.8096 83.349C72.0027 86.4643 67.1365 88.3333 61.8337 88.3333C49.6374 88.3333 39.7503 78.4463 39.7503 66.25C39.7503 54.0537 49.6374 44.1667 61.8337 44.1667C74.0299 44.1667 83.917 54.0537 83.917 66.25ZM61.8337 83.9167C71.5907 83.9167 79.5003 76.007 79.5003 66.25C79.5003 56.493 71.5907 48.5833 61.8337 48.5833C52.0766 48.5833 44.167 56.493 44.167 66.25C44.167 76.007 52.0766 83.9167 61.8337 83.9167Z" fill="#2C2A29"/>
</svg>
