<svg width="48" height="48" viewBox="0 0 48 48" fill="none" xmlns="http://www.w3.org/2000/svg">
<path fill-rule="evenodd" clip-rule="evenodd" d="M14 17C14 10.9249 18.9248 6 24.9999 6C31.075 6 35.9998 10.9249 35.9998 17C35.9998 23.0751 31.075 28 24.9999 28C18.9248 28 14 23.0751 14 17ZM25 7.94423C19.9987 7.94423 15.9444 11.9986 15.9444 17C15.9444 22.0014 19.9987 26.0558 25 26.0558C30.0014 26.0558 34.0557 22.0014 34.0557 17C34.0557 11.9986 30.0014 7.94423 25 7.94423ZM25 20.5417C24.1234 20.5417 23.4062 19.9042 23.4062 19.125H21.8125C21.8125 20.4425 22.8325 21.5475 24.2031 21.8592V23.375H25.7969V21.8592C27.1675 21.5475 28.1875 20.4425 28.1875 19.125C28.1875 17.5667 26.7531 16.2917 25 16.2917C24.1234 16.2917 23.4062 15.6542 23.4062 14.875C23.4062 14.0958 24.1234 13.4583 25 13.4583C25.8766 13.4583 26.5938 14.0958 26.5938 14.875H28.1875C28.1875 13.5575 27.1675 12.4525 25.7969 12.1408V10.625H24.2031V12.1408C22.8325 12.4525 21.8125 13.5575 21.8125 14.875C21.8125 16.4333 23.2469 17.7083 25 17.7083C25.8766 17.7083 26.5938 18.3458 26.5938 19.125C26.5938 19.9042 25.8766 20.5417 25 20.5417ZM12 24H14V27H16.5684C17.4092 27 18.2287 27.265 18.9104 27.7573L22.0157 30H28.5C29.4167 30 30.2182 30.4934 30.6534 31.2292L34.842 27.5641C36.0831 26.4782 37.9536 26.5404 39.1197 27.7065C40.3887 28.9756 40.3342 31.0493 39.0002 32.2498L30.6709 39.7463C30.4872 39.9115 30.2489 40.003 30.0019 40.003H21.0019C20.8467 40.003 20.6935 39.9668 20.5547 39.8974L14 36.62V38H12V24ZM14 34.384L21.238 38.003H29.6182L37.6623 30.7633C38.1445 30.3292 38.1643 29.5795 37.7055 29.1208C37.2839 28.6992 36.6077 28.6767 36.159 29.0693L30.4499 34.0648C30.2661 34.2934 30.0431 34.489 29.7909 34.6414L29.6604 34.7555L29.636 34.7276C29.2951 34.9018 28.909 35 28.5 35H20.3077V33H28.5C28.5556 33 28.6091 32.9909 28.6591 32.9742L28.9488 32.7207C28.9816 32.6541 29 32.5792 29 32.5C29 32.2239 28.7761 32 28.5 32H21.6923C21.4821 32 21.2772 31.9338 21.1068 31.8107L17.7394 29.3786C17.3986 29.1325 16.9888 29 16.5684 29H14V34.384Z" fill="#2C2A29"/>
<rect x="6" y="24" width="2" height="14" fill="#2C2A29"/>
<rect x="8" y="24" width="6" height="2" fill="#2C2A29"/>
<rect x="8" y="36" width="6" height="2" fill="#2C2A29"/>
</svg>
