<svg width="48" height="48" viewBox="0 0 48 48" fill="none" xmlns="http://www.w3.org/2000/svg">
<path fill-rule="evenodd" clip-rule="evenodd" d="M36 8V12H34H32H28H26H22H20H16H14H12V8H36ZM10 12.5366V6H38V12.5366C39.1948 13.2291 40 14.5221 40 16V24H38V42H32H30H18H16H10V24H8V16C8 14.5221 8.80518 13.2291 10 12.5366ZM12 14C10.896 14 10 14.898 10 16V22H14V14H12ZM16 14V22H20V14H16ZM22 14V22H26V14H22ZM28 14V22H32V14H28ZM34 14V22H38V16C38 14.898 37.104 14 36 14H34ZM36 24V40H32V28H16V40H12V24H14H16H20H22H26H28H32H34H36ZM30 40H18V30H30V40Z" fill="#2C2A29"/>
</svg>
