<svg width="47" height="47" viewBox="0 0 47 47" fill="none" xmlns="http://www.w3.org/2000/svg">
<path fill-rule="evenodd" clip-rule="evenodd" d="M12.1247 5.875H34.8767L38.7933 13.7083H25.8838L23.5007 9.73649L21.1176 13.7083H8.20801L12.1247 5.875ZM13.335 7.83333L11.3767 11.75H20.0088L22.3588 7.83333H13.335ZM24.6426 7.83333H33.6663L35.6247 11.75H26.9926L24.6426 7.83333Z" fill="#2C2A29"/>
<path fill-rule="evenodd" clip-rule="evenodd" d="M38.1703 18.8235C39.1039 17.4231 40.8908 16.8681 42.4534 17.4932C44.5524 18.3328 45.3469 20.891 44.093 22.772L41.8863 26.082L33.6976 34.2707H18.6045V32.3124H32.8864L40.3644 24.8344L42.4635 21.6857C43.0275 20.8397 42.6702 19.6891 41.7261 19.3115C41.0233 19.0303 40.2196 19.2799 39.7997 19.9098L36.9904 24.1237L34.9635 26.1506L33.5788 24.7658L35.4686 22.8761L38.1703 18.8235Z" fill="#2C2A29"/>
<path fill-rule="evenodd" clip-rule="evenodd" d="M9.50519 25.5772C9.1228 25.1948 8.50282 25.1948 8.12044 25.5772L5.30173 28.3959L15.667 38.7611L18.4857 35.9424C18.8681 35.56 18.8681 34.94 18.4857 34.5577L9.50519 25.5772ZM6.73569 24.1924C7.88285 23.0452 9.74277 23.0452 10.8899 24.1924L19.8704 33.1729C21.0176 34.3201 21.0176 36.18 19.8704 37.3272L15.667 41.5306L2.53223 28.3959L6.73569 24.1924Z" fill="#2C2A29"/>
<path fill-rule="evenodd" clip-rule="evenodd" d="M24.6848 21.5417L31.8238 21.5417C33.7165 21.5417 35.2509 23.076 35.2509 24.9688C35.2509 26.8615 33.7165 28.3959 31.8238 28.3959L24.48 28.3959V26.4375L31.8238 26.4375C32.635 26.4375 33.2925 25.7799 33.2925 24.9688C33.2925 24.1576 32.635 23.5 31.8238 23.5L24.2722 23.5L24.0824 23.4156C19.9771 21.5911 16.8649 22.2886 14.7772 23.3873C13.7166 23.9456 12.9041 24.6175 12.3577 25.1499C12.0853 25.4153 11.8816 25.6435 11.7489 25.8015C11.6826 25.8804 11.6342 25.9415 11.604 25.9806C11.5889 26.0002 11.5783 26.0142 11.5724 26.0222L11.5679 26.0283C11.5682 26.0279 11.5685 26.0275 10.7717 25.4584C9.97492 24.8892 9.97525 24.8888 9.9756 24.8883L9.97833 24.8845L9.98359 24.8772L9.99962 24.8554C10.0128 24.8377 10.0308 24.8137 10.0537 24.7841C10.0995 24.7247 10.1649 24.6424 10.2497 24.5415C10.4191 24.34 10.6667 24.0633 10.991 23.7473C11.638 23.1169 12.6003 22.3201 13.8651 21.6544C16.3934 20.3237 20.0682 19.5552 24.6848 21.5417ZM11.5679 26.0283C11.5676 26.0287 11.5677 26.0286 11.5679 26.0283Z" fill="#2C2A29"/>
<path d="M11.75 13.7083H13.7083V23.4999H11.75V13.7083Z" fill="#2C2A29"/>
<path d="M33.292 13.7083H35.2503V23.4999H33.292V13.7083Z" fill="#2C2A29"/>
<path fill-rule="evenodd" clip-rule="evenodd" d="M24.4798 15.6667V21.5417H22.5215V15.6667H24.4798Z" fill="#2C2A29"/>
</svg>
