<svg xmlns="http://www.w3.org/2000/svg" width="30" height="30" fill="none" xmlns:v="https://vecta.io/nano"><path fill-rule="evenodd" d="M22.53 20.999c-3.178.767-6.289 1.723-9.369 2.818-.44.166-.918-.05-1.034-.472l-.713-2.489c-.103-.377.117-.786.508-.928 3.081-1.051 6.191-1.877 9.372-2.562.351-.072.72.186.846.581l.731 2.258c.113.366-.037.721-.341.795zM6.586 19.282l-.562-2.661c-.072-.378.134-.806.477-.968 4.705-2.067 9.667-3.318 14.762-3.963.335-.044.675.204.8.574l.759 2.239c.126.386-.042.761-.371.814-5.181.825-10.231 2.209-15.01 4.382a.57.57 0 0 1-.854-.418zM8.877 8.281c3.151-.906 6.296-1.495 9.551-1.893.355-.038.702.191.831.541l.844 2.308c.14.393-.068.785-.45.836-3.331.49-6.558 1.163-9.778 2.147-.393.13-.779-.067-.879-.45l-.677-2.5a.85.85 0 0 1 .559-.989zM15.096.715C7.153.715.714 7.154.714 15.097s6.439 14.382 14.382 14.382 14.382-6.439 14.382-14.382S23.039.715 15.096.715z" fill="#2c2a29"/></svg>