<svg width="241" height="64" viewBox="0 0 241 64" fill="none" xmlns="http://www.w3.org/2000/svg">
<path fill-rule="evenodd" clip-rule="evenodd" d="M28.6966 28.1588C28.836 28.6701 29.3797 28.9338 29.9321 28.7604C34.4608 27.4444 39.0006 26.5438 43.6849 25.8887C44.2217 25.8208 44.5154 25.2966 44.3181 24.7707C43.9022 23.6626 43.692 23.11 43.2669 22.0082C43.0864 21.5405 42.5983 21.2337 42.0987 21.2849C37.5209 21.8179 33.0982 22.6051 28.6657 23.8176C28.0885 23.9888 27.7341 24.5991 27.8796 25.1406C28.2035 26.3462 28.3669 26.9496 28.6966 28.1588Z" fill="#2C2A29"/>
<path fill-rule="evenodd" clip-rule="evenodd" d="M47.0506 28.7647C46.8749 28.2695 46.3978 27.9386 45.9261 27.9969C38.7595 28.8596 31.781 30.5328 25.1636 33.2979C24.6809 33.5135 24.3913 34.0869 24.4925 34.5922C24.7519 35.8846 24.8829 36.5314 25.1476 37.8262C25.2607 38.3799 25.8083 38.6348 26.3484 38.3861C33.0701 35.4789 40.1733 33.6278 47.4603 32.5241C47.9234 32.4524 48.1596 31.9512 47.9824 31.4348C47.6153 30.3642 47.4288 29.8302 47.0506 28.7647Z" fill="#2C2A29"/>
<path fill-rule="evenodd" clip-rule="evenodd" d="M47.0305 35.9812C46.8529 35.4525 46.3337 35.1077 45.8405 35.2035C41.3657 36.1203 36.9918 37.2253 32.6589 38.6313C32.1094 38.8218 31.7999 39.3693 31.9443 39.8729C32.2887 41.0728 32.4621 41.6737 32.8108 42.8773C32.9746 43.4426 33.6466 43.7319 34.2656 43.5092C38.5969 42.0443 42.9718 40.7653 47.4423 39.7398C47.8711 39.6414 48.0821 39.1665 47.9227 38.6767C47.5708 37.5962 47.3924 37.0569 47.0305 35.9812Z" fill="#2C2A29"/>
<path fill-rule="evenodd" clip-rule="evenodd" d="M64.1153 34.7966C64.1153 33.3429 63.1361 32.7395 61.2065 32.7395H58.9025V36.8536H61.1777C63.0497 36.8536 64.1153 36.1406 64.1153 34.7966ZM60.7457 25.5261C60.1409 25.5261 59.5075 25.581 58.9025 25.6633V29.3111H60.8609C62.5888 29.3111 63.3953 28.6254 63.3953 27.4461C63.3953 26.3216 62.5601 25.5261 60.7457 25.5261ZM68.8382 34.9886C68.8382 38.1976 65.44 40.337 61.5808 40.337H54.4963V22.6189C56.8579 22.2897 58.6435 22.0703 60.7457 22.0703C64.6336 22.0703 67.744 23.7981 67.744 26.8153C67.744 28.5431 66.7936 29.6951 65.0944 30.3259C67.7152 31.0391 68.8382 32.5477 68.8382 34.9886Z" fill="#2C2A29"/>
<path fill-rule="evenodd" clip-rule="evenodd" d="M78.9858 36.8269V34.4682H78.1506C76.1924 34.4682 74.4068 34.8796 74.4068 36.1686C74.4068 37.156 75.098 37.5126 76.5092 37.5126C77.6324 37.5126 78.5538 37.1833 78.9858 36.8269ZM83.2192 31.6979V38.9113C81.6642 40.0358 79.1586 40.6393 75.7604 40.6393C72.7366 40.6393 70.231 39.4598 70.231 36.8541C70.231 32.932 74.234 31.9722 78.9858 31.8351C78.8994 30.1345 78.1794 29.6956 76.5954 29.6956C75.7604 29.6956 73.5428 30.0522 73.255 30.0522C72.5636 30.0522 72.0166 29.6408 71.5558 28.4341L71.21 27.4467C72.9956 26.8158 74.7524 26.377 76.6532 26.377C80.8002 26.377 83.2192 27.8581 83.2192 31.6979Z" fill="#2C2A29"/>
<path fill-rule="evenodd" clip-rule="evenodd" d="M99.0778 30.5734V40.3376H94.758V32.027C94.758 30.5734 93.7502 29.8329 91.9934 29.8329C91.3312 29.8329 90.6976 29.9151 90.1502 30.0523V40.3376H85.8018L85.8304 28.1325C87.6448 26.9805 90.5822 26.3496 92.9726 26.3496C96.2846 26.3496 99.0778 27.9129 99.0778 30.5734Z" fill="#2C2A29"/>
<path fill-rule="evenodd" clip-rule="evenodd" d="M100.951 33.6455C100.951 28.8455 104.464 26.3223 109.015 26.3223C110.282 26.3223 111.434 26.4868 112.816 26.7886C112.643 28.16 112.038 29.3667 111.376 30.0524C110.887 29.9152 110.08 29.8055 109.62 29.8055C106.711 29.8055 105.53 31.2318 105.53 33.3987C105.53 35.5928 106.624 36.9368 109.36 36.9368C110.109 36.9368 110.973 36.7996 112.038 36.4429L112.816 39.7343C111.232 40.3377 109.591 40.612 108.295 40.612C103.86 40.612 100.951 38.0886 100.951 33.6455Z" fill="#2C2A29"/>
<path fill-rule="evenodd" clip-rule="evenodd" d="M124.336 33.4535C124.336 31.2044 123.184 29.8878 121.168 29.8878C119.209 29.8878 118 31.2044 118 33.4535C118 35.8122 119.181 37.0465 121.168 37.0465C123.184 37.0465 124.336 35.8122 124.336 33.4535ZM113.651 33.4535C113.651 29.0649 116.762 26.3223 121.168 26.3223C125.747 26.3223 128.684 29.1747 128.684 33.4535C128.684 37.8691 125.718 40.612 121.168 40.612C116.589 40.612 113.651 37.787 113.651 33.4535Z" fill="#2C2A29"/>
<path fill-rule="evenodd" clip-rule="evenodd" d="M131.133 22.7287C132.14 22.0155 134.329 21.4121 135.481 21.4121V40.3371H131.133V22.7287Z" fill="#2C2A29"/>
<path fill-rule="evenodd" clip-rule="evenodd" d="M148.614 33.4535C148.614 31.2044 147.462 29.8878 145.446 29.8878C143.487 29.8878 142.278 31.2044 142.278 33.4535C142.278 35.8122 143.459 37.0465 145.446 37.0465C147.462 37.0465 148.614 35.8122 148.614 33.4535ZM137.929 33.4535C137.929 29.0649 141.04 26.3223 145.446 26.3223C150.025 26.3223 152.962 29.1747 152.962 33.4535C152.962 37.8691 149.996 40.612 145.446 40.612C140.867 40.612 137.929 37.787 137.929 33.4535Z" fill="#2C2A29"/>
<path fill-rule="evenodd" clip-rule="evenodd" d="M177.183 30.5734V40.3376H172.892V32.027C172.892 30.5734 171.913 29.8329 170.185 29.8329C169.378 29.8329 168.601 29.9974 167.967 30.2443C168.197 30.8477 168.313 31.506 168.313 32.2191V40.3376H164.022V32.027C164.022 30.5734 163.042 29.8329 161.314 29.8329C160.652 29.8329 160.019 29.9151 159.471 30.0523V40.3376H155.123L155.152 28.1325C156.88 26.9805 159.587 26.3496 161.862 26.3496C163.676 26.3496 165.231 26.9256 166.354 27.8582C167.823 26.9529 169.868 26.3496 171.596 26.3496C174.735 26.3496 177.183 27.9403 177.183 30.5734Z" fill="#2C2A29"/>
<path fill-rule="evenodd" clip-rule="evenodd" d="M190.345 33.2609C190.345 30.7375 188.962 29.8323 186.745 29.8323C185.852 29.8323 185.132 29.9969 184.498 30.2712V37.1556C185.276 37.2651 186.025 37.32 186.716 37.32C189.25 37.32 190.345 35.455 190.345 33.2609ZM194.635 32.7396C194.635 37.7314 191.525 40.6114 186.457 40.6114C183.98 40.6114 181.59 40.1725 180.15 39.5418V22.7287C181.158 22.0155 183.375 21.4121 184.498 21.4121V27.9123C185.737 26.8976 187.234 26.3491 188.588 26.3491C192.879 26.3491 194.635 29.174 194.635 32.7396Z" fill="#2C2A29"/>
<path fill-rule="evenodd" clip-rule="evenodd" d="M197.084 26.7346C197.689 26.4877 198.438 26.3506 199.273 26.3506C200.108 26.3506 200.828 26.4877 201.433 26.7346V40.3386H197.084V26.7346ZM197.026 22.4009C197.026 21.2491 198.034 20.2891 199.244 20.2891C200.482 20.2891 201.49 21.2216 201.49 22.4009C201.49 23.5255 200.482 24.5129 199.244 24.5129C198.034 24.5129 197.026 23.5803 197.026 22.4009Z" fill="#2C2A29"/>
<path fill-rule="evenodd" clip-rule="evenodd" d="M212.347 36.8269V34.4682H211.512C209.554 34.4682 207.768 34.8796 207.768 36.1686C207.768 37.156 208.459 37.5126 209.871 37.5126C210.994 37.5126 211.915 37.1833 212.347 36.8269ZM216.581 31.6979V38.9113C215.026 40.0358 212.52 40.6393 209.122 40.6393C206.098 40.6393 203.592 39.4598 203.592 36.8541C203.592 32.932 207.595 31.9722 212.347 31.8351C212.261 30.1345 211.541 29.6956 209.957 29.6956C209.122 29.6956 206.904 30.0522 206.616 30.0522C205.925 30.0522 205.378 29.6408 204.917 28.4341L204.571 27.4467C206.357 26.8158 208.114 26.377 210.015 26.377C214.162 26.377 216.581 27.8581 216.581 31.6979Z" fill="#2C2A29"/>
</svg>
