<svg width="375" height="224" fill="none" xmlns="http://www.w3.org/2000/svg"><path d="m354.627 125.782 44.98-60.371 11.239-15.059c3.605-4.752 7.743-9.131 12.271-13.081a97.383 97.383 0 0 1 30.998-18.17" stroke="#FDDA24" stroke-width="21.721" stroke-linecap="round"/><path d="M-125.086 147.723c26.205-38.944 84.117-58.272 128.312-42.232 19.513 7.081 36.59 19.495 52.4 32.694" stroke="#FF7F41" stroke-width="21.721" stroke-linecap="round"/><path d="M-35.893 92.219c8.403-.971 16.903-.838 25.224.441l1.562.228c.52.077 1.034.192 1.551.287l3.1.599 3.068.733 1.533.375 1.517.438c4.063 1.098 8.014 2.581 11.905 4.185 1.923.859 3.86 1.688 5.726 2.673 1.902.913 3.724 1.98 5.56 3.018.921.513 1.795 1.111 2.694 1.664.891.567 1.796 1.112 2.65 1.737l2.594 1.822c.848.607 1.633 1.204 2.452 1.805l19.47 14.412 38.937 28.825 19.469 14.413 4.867 3.602c1.62 1.187 3.252 2.444 4.854 3.537l4.823 3.386 4.984 3.135" stroke="#FDDA24" stroke-width="13.016" stroke-linecap="round"/><path d="M264.329 194.828c3.193-1.144 6.256-2.605 9.368-3.944 1.529-.727 3.036-1.505 4.556-2.253l2.275-1.134 2.216-1.243c1.473-.835 2.966-1.64 4.425-2.499l4.308-2.697c1.456-.868 2.828-1.863 4.22-2.829l2.084-1.451c.697-.483 1.398-.958 2.057-1.49l4.022-3.106 1.006-.775.966-.823 1.931-1.651 1.931-1.649c.32-.277.649-.544.963-.829l.922-.873 3.693-3.488c4.779-4.79 9.396-9.767 13.489-15.165 2.091-2.612 4.158-5.463 6.231-8.249l6.216-8.383 12.434-16.765L378.509 80" stroke="#FF7F41" stroke-width="13.033" stroke-linecap="round"/><path d="m89.142 163.586 22.216 16.577 2.778 2.072 2.894 2.056c1.944 1.357 3.842 2.784 5.874 4.011l3.003 1.904 1.502.951c.497.323 1.026.592 1.538.89 2.069 1.156 4.113 2.357 6.203 3.471 16.766 8.851 35.141 14.529 53.899 16.778" stroke="#9063CD" stroke-width="21.721" stroke-linecap="round"/></svg>